<svg xmlns="http://www.w3.org/2000/svg" width="792" height="792" version="1"><path d="M609 123A244 244 0 0 0 396 0a244 244 0 0 0-246 246v10l1 7v10c3 33 12 73 27 118 14 45 32 91 54 138a3174 3174 0 0 0 121 238c14 34 70 33 86 0l60-111 61-127c21-47 39-93 54-138s24-85 27-118v-6l1-4v-17c0-44-11-85-33-123zm-16 132v5l-1 3v6c-3 32-13 70-28 115-15 46-34 92-56 140a3503 3503 0 0 1-112 219 2883 2883 0 0 1-112-220c-22-47-40-93-55-139-16-45-25-83-29-115v-10l-1-4v-9c0-54 20-100 58-138 38-39 85-58 139-58s101 19 139 58c38 38 58 84 58 138v9z"/><path d="M396 167c-25 0-47 9-64 26-18 18-26 40-26 64s8 47 26 64c17 18 39 27 64 27s46-9 64-27 26-39 26-64-9-46-26-64-39-26-64-26zm29 119a41 41 0 0 1-58 0 40 40 0 0 1 0-57c16-16 41-16 58 0 16 16 16 41 0 57z"/></svg>